<svg xmlns="http://www.w3.org/2000/svg" xmlns:xlink="http://www.w3.org/1999/xlink" width="500" zoomAndPan="magnify" viewBox="0 0 375 374.999991" height="500" preserveAspectRatio="xMidYMid meet" version="1.0"><defs><filter x="0%" y="0%" width="100%" height="100%" id="b12c06547d"><feColorMatrix values="0 0 0 0 1 0 0 0 0 1 0 0 0 0 1 0 0 0 1 0" color-interpolation-filters="sRGB"/></filter><g/><mask id="53a95989b1"><g filter="url(#b12c06547d)"><rect x="-37.5" width="450" fill="#000000" y="-37.499999" height="449.999989" fill-opacity="0.349"/></g></mask><clipPath id="42282a6fac"><path d="M 0.0664062 23 L 39 23 L 39 82 L 0.0664062 82 Z M 0.0664062 23 " clip-rule="nonzero"/></clipPath><clipPath id="b10c0e3526"><path d="M 36 0.335938 L 206.316406 0.335938 L 206.316406 82 L 36 82 Z M 36 0.335938 " clip-rule="nonzero"/></clipPath><clipPath id="d4a7930290"><path d="M 4 97 L 19 97 L 19 116.585938 L 4 116.585938 Z M 4 97 " clip-rule="nonzero"/></clipPath><clipPath id="f9ce23c52a"><path d="M 188 97 L 202 97 L 202 116.585938 L 188 116.585938 Z M 188 97 " clip-rule="nonzero"/></clipPath><clipPath id="a9cf077b34"><rect x="0" width="208" y="0" height="118"/></clipPath><mask id="069ef8d055"><g filter="url(#b12c06547d)"><rect x="-37.5" width="450" fill="#000000" y="-37.499999" height="449.999989" fill-opacity="0.6392"/></g></mask><clipPath id="9cd478e86b"><path d="M 1 1 L 17.472656 1 L 17.472656 10 L 1 10 Z M 1 1 " clip-rule="nonzero"/></clipPath><clipPath id="370afb5da9"><path d="M 15 11 L 17.472656 11 L 17.472656 14 L 15 14 Z M 15 11 " clip-rule="nonzero"/></clipPath><clipPath id="845462ab45"><rect x="0" width="19" y="0" height="19"/></clipPath></defs><rect x="-37.5" width="450" fill="#ffffff" y="-37.499999" height="449.999989" fill-opacity="1"/><rect x="-37.5" width="450" fill="#ffffff" y="-37.499999" height="449.999989" fill-opacity="1"/><rect x="-37.5" width="450" fill="#18181b" y="-37.499999" height="449.999989" fill-opacity="1"/><g mask="url(#53a95989b1)"><g transform="matrix(1, 0, 0, 1, 77, 71)"><g clip-path="url(#a9cf077b34)"><path fill="#ec1a23" d="M 21.222656 71.9375 L 101.335938 110.703125 L 104.769531 102.609375 Z M 21.222656 71.9375 " fill-opacity="1" fill-rule="nonzero"/><g clip-path="url(#42282a6fac)"><path fill="#ec1a23" d="M 35.472656 40.40625 L 30.933594 33.308594 C 33.382812 30.921875 35.957031 28.640625 38.644531 26.484375 L 36.527344 23.84375 C 27.71875 30.90625 20.121094 39.265625 13.941406 48.695312 C 7.660156 58.28125 2.996094 68.742188 0.0820312 79.78125 L 1.632812 79.921875 L 1.625 79.945312 L 20.921875 81.429688 L 5.785156 72.648438 C 6.949219 69.3125 8.285156 66.050781 9.785156 62.871094 L 18.054688 64.855469 L 11.472656 59.484375 C 13.410156 55.75 15.578125 52.148438 17.964844 48.683594 L 25.789062 51.9375 L 20.160156 45.617188 C 22.664062 42.25 25.386719 39.035156 28.300781 35.976562 L 35.472656 40.40625 " fill-opacity="1" fill-rule="nonzero"/></g><path fill="#ffffff" d="M 115.121094 51.535156 C 113.929688 51.535156 112.960938 50.570312 112.960938 49.378906 C 112.960938 48.191406 113.929688 47.222656 115.121094 47.222656 C 116.3125 47.222656 117.277344 48.191406 117.277344 49.378906 C 117.277344 50.570312 116.3125 51.535156 115.121094 51.535156 Z M 105.589844 50.472656 C 105.589844 50.761719 105.355469 50.996094 105.0625 50.996094 L 95.324219 50.996094 C 95.035156 50.996094 94.800781 50.761719 94.800781 50.472656 L 94.800781 43.25 C 94.800781 42.960938 95.035156 42.726562 95.324219 42.726562 L 105.0625 42.726562 C 105.355469 42.726562 105.589844 42.960938 105.589844 43.25 Z M 117.492188 46.683594 L 117.496094 46.683594 L 111.847656 41.035156 L 110.832031 42.054688 L 114.605469 45.824219 C 112.863281 46.078125 111.523438 47.570312 111.523438 49.378906 C 111.523438 51.363281 113.136719 52.976562 115.121094 52.976562 C 115.929688 52.976562 116.675781 52.703125 117.277344 52.25 L 117.277344 65.019531 C 117.277344 66.308594 116.226562 67.359375 114.941406 67.359375 C 113.652344 67.359375 112.601562 66.308594 112.601562 65.019531 L 112.601562 58.546875 C 112.601562 56.070312 110.585938 54.054688 108.105469 54.054688 L 108.105469 41.914062 C 108.105469 40.378906 106.859375 39.132812 105.320312 39.132812 L 94.710938 39.132812 C 93.171875 39.132812 91.921875 40.378906 91.921875 41.914062 L 91.921875 69.238281 L 108.105469 69.238281 L 108.105469 55.492188 C 109.792969 55.492188 111.164062 56.863281 111.164062 58.546875 L 111.164062 65.019531 C 111.164062 67.105469 112.855469 68.796875 114.941406 68.796875 C 117.023438 68.796875 118.71875 67.105469 118.71875 65.019531 L 118.71875 49.558594 L 118.707031 49.558594 C 118.710938 49.5 118.71875 49.441406 118.71875 49.378906 C 118.71875 48.308594 118.242188 47.34375 117.492188 46.683594 " fill-opacity="1" fill-rule="nonzero"/><g clip-path="url(#b10c0e3526)"><path fill="#ffffff" d="M 204.75 79.917969 L 206.300781 79.785156 C 193.972656 33.070312 151.570312 0.445312 103.191406 0.445312 C 90.851562 0.445312 78.757812 2.535156 67.246094 6.65625 C 56.121094 10.636719 45.785156 16.417969 36.527344 23.84375 L 38.644531 26.484375 C 38.738281 26.410156 38.832031 26.339844 38.925781 26.265625 L 52.105469 37.625 L 45.160156 21.664062 C 48.09375 19.65625 51.109375 17.820312 54.199219 16.144531 L 59.652344 22.609375 L 57.546875 14.410156 C 61.320312 12.539062 65.203125 10.90625 69.167969 9.523438 L 73.542969 16.792969 L 72.757812 8.351562 C 76.765625 7.117188 80.859375 6.136719 85.019531 5.40625 L 88.175781 13.246094 L 88.734375 4.824219 C 92.222656 4.34375 95.753906 4.035156 99.320312 3.90625 L 103.191406 20.847656 L 107.058594 3.90625 C 110.632812 4.035156 114.164062 4.347656 117.648438 4.832031 L 118.203125 13.246094 L 121.359375 5.417969 C 125.53125 6.148438 129.625 7.132812 133.625 8.351562 L 132.835938 16.792969 L 137.21875 9.515625 C 141.210938 10.890625 145.09375 12.503906 148.851562 14.339844 L 146.730469 22.609375 L 152.242188 16.074219 C 155.351562 17.734375 158.367188 19.554688 161.28125 21.523438 L 154.277344 37.625 L 167.597656 26.144531 C 170.367188 28.339844 173.019531 30.671875 175.550781 33.144531 L 170.910156 40.40625 L 178.246094 35.878906 C 181.125 38.910156 183.824219 42.121094 186.320312 45.503906 L 180.589844 51.9375 L 188.539062 48.632812 C 190.886719 52.078125 193.035156 55.6875 194.960938 59.441406 L 188.328125 64.855469 L 196.636719 62.863281 C 198.117188 66.027344 199.441406 69.289062 200.601562 72.636719 L 185.460938 81.421875 L 202.875 80.085938 L 204.753906 79.9375 L 204.75 79.917969 " fill-opacity="1" fill-rule="nonzero"/></g><g clip-path="url(#d4a7930290)"><path fill="#ffffff" d="M 8.578125 108.535156 L 17.414062 108.535156 L 17.414062 104.890625 L 8.578125 104.890625 L 8.578125 101.335938 L 17.792969 101.335938 L 17.792969 97.695312 L 4.199219 97.695312 L 4.199219 116.414062 L 17.820312 116.414062 L 18.347656 112.773438 L 8.578125 112.773438 L 8.578125 108.535156 " fill-opacity="1" fill-rule="nonzero"/></g><g clip-path="url(#f9ce23c52a)"><path fill="#ffffff" d="M 188.414062 116.414062 L 192.828125 116.414062 L 192.828125 109.160156 L 201.230469 109.160156 L 201.230469 105.519531 L 192.828125 105.519531 L 192.828125 101.335938 L 201.796875 101.335938 L 201.796875 97.695312 L 188.414062 97.695312 L 188.414062 116.414062 " fill-opacity="1" fill-rule="nonzero"/></g><path fill="#ffffff" d="M 103.113281 100.019531 C 99.226562 100.019531 96.074219 103.167969 96.074219 107.054688 C 96.074219 110.941406 99.226562 114.089844 103.113281 114.089844 C 107 114.089844 110.152344 110.941406 110.152344 107.054688 C 110.152344 103.167969 107 100.019531 103.113281 100.019531 " fill-opacity="1" fill-rule="nonzero"/></g></g></g><g fill="#fefefc" fill-opacity="1"><g transform="translate(74.759621, 249.127871)"><g><path d="M 42.902344 -66.773438 L 42.902344 -57.175781 L 20.867188 -57.175781 C 19.53125 -57.175781 18.78125 -55.921875 18.78125 -55.089844 L 18.78125 -41.398438 C 18.78125 -40.066406 19.949219 -39.3125 20.867188 -39.3125 L 41.066406 -39.3125 L 41.066406 -29.714844 L 20.867188 -29.714844 C 19.53125 -29.714844 18.78125 -28.460938 18.78125 -27.628906 L 18.78125 -2.085938 L 7.261719 -2.085938 L 7.261719 -66.773438 Z M 47.074219 -68.863281 C 47.074219 -69.695312 46.242188 -70.949219 44.988281 -70.949219 L 5.175781 -70.949219 C 4.257812 -70.949219 3.089844 -70.113281 3.089844 -68.863281 L 3.089844 0 C 3.089844 0.917969 3.839844 2.085938 5.175781 2.085938 L 20.867188 2.085938 C 21.703125 2.085938 22.953125 1.335938 22.953125 0 L 22.953125 -25.542969 L 43.152344 -25.542969 C 43.988281 -25.542969 45.238281 -26.292969 45.238281 -27.628906 L 45.238281 -41.398438 C 45.238281 -42.234375 44.40625 -43.488281 43.152344 -43.488281 L 22.953125 -43.488281 L 22.953125 -53.003906 L 44.988281 -53.003906 C 45.824219 -53.003906 47.074219 -53.753906 47.074219 -55.089844 Z M 47.074219 -68.863281 "/></g></g></g><g fill="#fefefc" fill-opacity="1"><g transform="translate(128.757296, 249.127871)"><g><path d="M 56.507812 -66.773438 L 56.507812 -24.457031 C 56.507812 -8.429688 48.328125 -0.835938 31.71875 -0.835938 C 15.023438 -0.835938 6.929688 -8.429688 6.929688 -24.457031 L 6.929688 -66.773438 L 18.445312 -66.773438 L 18.445312 -29.046875 C 18.445312 -16.945312 22.785156 -12.101562 31.71875 -12.101562 C 40.566406 -12.101562 44.988281 -16.945312 44.988281 -29.046875 L 44.988281 -66.773438 Z M 60.679688 -68.863281 C 60.679688 -69.695312 59.847656 -70.949219 58.59375 -70.949219 L 42.902344 -70.949219 C 41.984375 -70.949219 40.816406 -70.113281 40.816406 -68.863281 L 40.816406 -29.046875 C 40.816406 -18.027344 38.144531 -16.277344 31.71875 -16.277344 C 25.207031 -16.277344 22.621094 -18.027344 22.621094 -29.046875 L 22.621094 -68.863281 C 22.621094 -69.695312 21.785156 -70.949219 20.53125 -70.949219 L 4.839844 -70.949219 C 3.921875 -70.949219 2.753906 -70.113281 2.753906 -68.863281 L 2.753906 -24.457031 C 2.753906 -6.34375 13.269531 3.339844 31.71875 3.339844 C 50.082031 3.339844 60.679688 -6.34375 60.679688 -24.457031 Z M 60.679688 -68.863281 "/></g></g></g><g fill="#fefefc" fill-opacity="1"><g transform="translate(197.443332, 249.127871)"><g><path d="M 42.484375 -66.773438 L 42.484375 -57.175781 L 20.867188 -57.175781 C 19.53125 -57.175781 18.78125 -55.921875 18.78125 -55.089844 L 18.78125 -41.398438 C 18.78125 -40.066406 19.949219 -39.3125 20.867188 -39.3125 L 41.484375 -39.3125 L 41.484375 -29.714844 L 20.867188 -29.714844 C 19.53125 -29.714844 18.78125 -28.460938 18.78125 -27.628906 L 18.78125 -13.773438 C 18.78125 -12.4375 19.949219 -11.6875 20.867188 -11.6875 L 42.484375 -11.6875 L 42.484375 -2.085938 L 7.261719 -2.085938 L 7.261719 -66.773438 Z M 46.660156 -68.863281 C 46.660156 -69.695312 45.824219 -70.949219 44.570312 -70.949219 L 5.175781 -70.949219 C 4.257812 -70.949219 3.089844 -70.113281 3.089844 -68.863281 L 3.089844 0 C 3.089844 0.917969 3.839844 2.085938 5.175781 2.085938 L 44.570312 2.085938 C 45.40625 2.085938 46.660156 1.335938 46.660156 0 L 46.660156 -13.773438 C 46.660156 -14.605469 45.824219 -15.859375 44.570312 -15.859375 L 22.953125 -15.859375 L 22.953125 -25.542969 L 43.570312 -25.542969 C 44.40625 -25.542969 45.65625 -26.292969 45.65625 -27.628906 L 45.65625 -41.398438 C 45.65625 -42.234375 44.824219 -43.488281 43.570312 -43.488281 L 22.953125 -43.488281 L 22.953125 -53.003906 L 44.570312 -53.003906 C 45.40625 -53.003906 46.660156 -53.753906 46.660156 -55.089844 Z M 46.660156 -68.863281 "/></g></g></g><g fill="#fefefc" fill-opacity="1"><g transform="translate(251.607914, 249.127871)"><g><path d="M 18.78125 -66.773438 L 18.78125 -13.773438 C 18.78125 -12.4375 19.949219 -11.6875 20.867188 -11.6875 L 42.484375 -11.6875 L 42.484375 -2.085938 L 7.261719 -2.085938 L 7.261719 -66.773438 Z M 22.953125 -68.863281 C 22.953125 -69.695312 22.117188 -70.949219 20.867188 -70.949219 L 5.175781 -70.949219 C 4.257812 -70.949219 3.089844 -70.113281 3.089844 -68.863281 L 3.089844 0 C 3.089844 0.917969 3.839844 2.085938 5.175781 2.085938 L 44.570312 2.085938 C 45.40625 2.085938 46.660156 1.335938 46.660156 0 L 46.660156 -13.773438 C 46.660156 -14.605469 45.824219 -15.859375 44.570312 -15.859375 L 22.953125 -15.859375 Z M 22.953125 -68.863281 "/></g></g></g><g fill="#fefefc" fill-opacity="1"><g transform="translate(111.960259, 167.745059)"><g><path d="M 44.039062 -56.785156 C 43.507812 -59.191406 42.164062 -63.089844 39.0625 -62.789062 C 36.699219 -62.5625 34.167969 -58.667969 32.839844 -56.972656 C 29.582031 -52.859375 26.660156 -48.332031 23.898438 -43.742188 C 18.050781 -34.011719 12.863281 -23.597656 9.203125 -12.8125 C 10.796875 -19.523438 11.996094 -26.421875 13.898438 -33.015625 C 13.941406 -33.316406 17.710938 -45.308594 18.632812 -47.335938 C 18.007812 -46.082031 16.246094 -41.140625 15.417969 -38.902344 C 16.925781 -43.371094 18.582031 -47.851562 20.328125 -52.195312 C 20.148438 -51.730469 19.925781 -50.960938 19.996094 -50.96875 C 20.300781 -50.925781 21.558594 -54.101562 21.332031 -54.152344 L 21.058594 -53.902344 C 21.4375 -54.609375 21.695312 -55.007812 21.226562 -56.007812 C 20.589844 -57.214844 19.046875 -58.554688 17.695312 -58.648438 C 15.671875 -58.753906 14.527344 -56.703125 13.863281 -55.074219 C 13.503906 -54.148438 12.742188 -53.550781 12.25 -52.460938 C 11.441406 -50.816406 10.9375 -49.054688 10.4375 -47.292969 C 10.140625 -46.519531 7.050781 -36.753906 7.28125 -36.703125 L 7.472656 -37.019531 C 7.242188 -36.328125 7.164062 -35.574219 6.933594 -34.878906 C 6.851562 -34.945312 7.097656 -35.492188 6.945312 -35.550781 C 6.265625 -35.636719 4.769531 -28.710938 4.746094 -28.183594 C 4.597656 -26.605469 4.363281 -25.167969 3.988281 -23.640625 C 3.710938 -22.644531 3.433594 -21.648438 3.3125 -20.59375 C 3.320312 -20.519531 3.175781 -18.941406 3.316406 -19.027344 L 3.351562 -18.660156 C 3.269531 -18.726562 3.253906 -18.875 3.246094 -18.945312 C 3.035156 -18.851562 2.898438 -16.378906 2.84375 -16.152344 C 2.449219 -14.84375 1.972656 -13.605469 1.730469 -12.242188 C 1.042969 -8.523438 0.957031 -4.789062 0.792969 -1.046875 C 0.652344 1.355469 -0.273438 5.691406 1.410156 7.691406 C 2.585938 9.070312 6.265625 10.132812 7.492188 8.148438 C 8.019531 7.429688 7.75 6.1875 7.835938 5.507812 C 7.921875 1.773438 8.589844 -1.347656 9.660156 -4.953125 C 11.859375 -12.320312 14.746094 -19.53125 18.101562 -26.488281 C 20.914062 -32.125 23.484375 -37.960938 26.921875 -43.285156 C 29.0625 -46.621094 31.203125 -49.960938 33.582031 -53.09375 C 34.109375 -53.816406 36.390625 -57.242188 37.613281 -56.910156 C 39.140625 -56.535156 38.226562 -51.304688 38.105469 -50.25 C 37.648438 -46.480469 36.96875 -42.6875 36.0625 -38.945312 C 34.5625 -32.839844 33.222656 -26.597656 31.25 -20.742188 C 29.972656 -16.96875 28.46875 -13.246094 26.875 -9.664062 C 25.511719 -6.773438 23.675781 -1.828125 20.289062 -0.609375 C 16.394531 0.734375 13.167969 -4.917969 11.5625 -7.671875 C 12.066406 -2.425781 15.691406 2.742188 21.398438 3.160156 C 27.179688 3.574219 31.476562 -2.875 33.96875 -7.214844 C 35.953125 -10.609375 37.679688 -14.355469 38.964844 -18.054688 C 39.246094 -18.976562 39.238281 -19.871094 39.378906 -20.707031 C 39.613281 -22.144531 40.519531 -23.574219 40.984375 -24.960938 C 42.253906 -28.808594 43.308594 -32.5625 44.046875 -36.507812 C 44.460938 -38.414062 44.800781 -40.308594 44.984375 -42.265625 C 45.0625 -43.015625 45.125 -43.917969 45.128906 -44.664062 C 45.085938 -45.105469 44.726562 -45.742188 44.710938 -45.890625 C 44.46875 -47.65625 44.878906 -49.558594 44.777344 -51.414062 C 44.679688 -53.191406 44.429688 -55.03125 44.039062 -56.785156 Z M 6.535156 -26.640625 C 6.585938 -28.4375 7.285156 -30.441406 7.789062 -32.203125 C 8.386719 -34.5 9 -36.644531 9.902344 -38.894531 C 11.035156 -41.835938 12.089844 -44.84375 13.453125 -47.730469 C 13.339844 -47.347656 13.335938 -46.601562 13.15625 -46.136719 C 12.925781 -45.445312 12.546875 -44.738281 12.320312 -43.96875 C 11.738281 -42.273438 11.230469 -40.585938 10.574219 -38.882812 C 9.746094 -36.640625 8.984375 -34.480469 8.304688 -32.253906 C 7.902344 -31.023438 7.644531 -29.804688 7.316406 -28.582031 C 7.164062 -27.820312 7.09375 -26.25 6.699219 -25.6875 C 6.566406 -25.527344 6.535156 -26.640625 6.535156 -26.640625 Z M 31.125 -15.066406 C 30.941406 -14.675781 30.753906 -14.285156 30.640625 -13.902344 L 30.34375 -13.128906 C 30.269531 -13.121094 30.277344 -13.046875 30.285156 -12.972656 C 29.128906 -10.253906 27.832031 -7.445312 26.4375 -4.925781 C 26.242188 -4.609375 22.15625 1.746094 21.34375 0.257812 C 21.25 0.046875 22.769531 -0.398438 22.835938 -0.480469 C 23.820312 -1.097656 24.601562 -2.289062 25.253906 -3.246094 C 26.808594 -5.707031 28.109375 -8.441406 29.273438 -11.085938 C 30.253906 -13.269531 31.164062 -15.445312 31.925781 -17.605469 L 31.46875 -16.144531 C 31.707031 -16.761719 31.875 -17.375 32.039062 -17.988281 L 32.382812 -19.0625 L 32.34375 -18.6875 C 32.457031 -19.070312 32.5625 -19.527344 32.746094 -19.917969 L 32.738281 -19.992188 C 33.039062 -20.765625 33.277344 -21.386719 33.351562 -21.394531 C 33.359375 -21.320312 31.371094 -15.613281 31.117188 -15.140625 Z M 35.757812 -23.488281 C 35.53125 -21.976562 35.15625 -20.449219 34.617188 -19.054688 C 34.132812 -17.890625 33.207031 -16.683594 32.949219 -15.464844 C 33.582031 -18.210938 34.898438 -20.796875 35.75 -23.5625 Z M 7.796875 -25.125 C 7.296875 -24.105469 7.625 -23.019531 7.421875 -22.03125 C 7.246094 -21.566406 6.515625 -20.601562 6.425781 -20 C 6.382812 -20.441406 6.476562 -21.046875 6.511719 -21.421875 C 6.515625 -22.167969 6.855469 -22.5 7.167969 -23.125 C 7.421875 -23.597656 7.429688 -25.089844 7.996094 -25.367188 Z M 26.53125 -4.710938 C 27.414062 -6.363281 28.292969 -8.085938 29.082031 -9.949219 C 28.300781 -8.011719 27.496094 -6.296875 26.53125 -4.710938 Z M 14.308594 -49.675781 C 14.617188 -49.558594 14.558594 -49.402344 14.222656 -49 C 14.0625 -49.132812 14.039062 -49.351562 14.308594 -49.675781 Z M 13.992188 -34.367188 L 13.996094 -34.292969 L 13.085938 -31.371094 L 14.550781 -36.285156 C 14.394531 -35.597656 14.230469 -34.984375 13.992188 -34.367188 Z M 29.621094 -11.34375 C 29.632812 -11.195312 29.566406 -11.117188 29.507812 -10.960938 Z M 32.097656 -18.140625 C 32.105469 -18.066406 32.105469 -18.066406 32.039062 -17.988281 C 32.03125 -18.0625 32.105469 -18.066406 32.097656 -18.140625 Z M 32.097656 -18.140625 "/></g></g></g><g fill="#fefefc" fill-opacity="1"><g transform="translate(156.864377, 163.429344)"><g><path d="M 35.882812 -21.414062 C 35.652344 -23.03125 34.457031 -21.5 34.070312 -20.867188 C 33.246094 -19.371094 32.503906 -17.808594 31.75 -16.320312 C 30.046875 -13.101562 28.34375 -9.878906 26.332031 -6.78125 C 19.625 3.332031 23.339844 -13.871094 22.761719 -13.667969 C 22.476562 -13.566406 22.359375 -12.433594 22.308594 -12.207031 C 22.640625 -14.921875 23.445312 -18.203125 24.601562 -20.925781 C 25.257812 -22.628906 26.089844 -24.050781 24.441406 -25.679688 C 21.390625 -28.742188 18.503906 -25.40625 16.953125 -22.949219 C 15.941406 -25.683594 14.066406 -29.675781 10.449219 -29.328125 C 8.824219 -29.171875 7.941406 -28.269531 6.925781 -27.203125 C 6.304688 -26.695312 5.792969 -26.570312 5.253906 -25.996094 C 4.355469 -25.242188 3.792969 -24.144531 3.210938 -23.191406 C 1.054688 -19.257812 -0.269531 -14.433594 -0.671875 -10.074219 C -0.839844 -7.96875 -0.769531 -5.664062 0.0195312 -3.65625 C 0.503906 -2.507812 2.089844 0.0234375 3.765625 -0.363281 C 3.839844 -0.367188 3.6875 -0.429688 3.449219 -0.554688 C 4.511719 -0.359375 5.679688 -0.621094 6.507812 -1.296875 C 6.597656 -1.15625 5.746094 -0.703125 5.746094 -0.703125 C 6.679688 0.476562 12.035156 -7.417969 12.414062 -8.125 C 13.246094 -9.546875 13.773438 -11.015625 14.527344 -12.503906 C 15.089844 -13.601562 15.996094 -15.03125 16.628906 -16.207031 C 16.605469 -15.683594 16.667969 -15.019531 16.667969 -15.019531 C 15.746094 -10.683594 14.929688 -5.980469 17.121094 -1.792969 C 18.144531 0.34375 20.339844 2.21875 22.808594 1.535156 C 24.988281 0.953125 26.628906 -1.367188 27.792969 -3.191406 C 29.234375 -5.269531 30.433594 -7.546875 31.621094 -9.898438 C 32.613281 -12.003906 33.527344 -14.105469 34.277344 -16.414062 C 34.730469 -17.875 36.195312 -19.726562 35.882812 -21.414062 Z M 14.734375 -18.859375 C 14.414062 -18.304688 14.097656 -17.753906 13.851562 -17.207031 L 12.191406 -14.289062 C 11.113281 -12.324219 9.957031 -10.421875 8.714844 -8.589844 C 8.394531 -8.039062 6.84375 -5.578125 6.082031 -5.726562 C 4.941406 -5.992188 5.753906 -9.945312 5.84375 -10.550781 C 5.964844 -11.605469 8.789062 -23.355469 9.800781 -23.675781 C 8.464844 -23.621094 5.464844 -9.84375 5.347656 -8.714844 C 5.59375 -12.390625 6.582031 -16.0625 7.738281 -19.527344 C 8.386719 -21.304688 9.800781 -25.988281 12.238281 -26.222656 C 13.566406 -26.347656 14.125 -23.644531 14.433594 -22.78125 C 14.34375 -22.921875 13.472656 -25 13.40625 -24.917969 C 13.066406 -24.585938 14.933594 -20.667969 14.992188 -20.074219 C 15.046875 -19.484375 15.046875 -19.484375 14.734375 -18.859375 Z M 16.78125 -15.402344 C 16.78125 -15.402344 16.902344 -16.457031 16.957031 -16.6875 L 17.277344 -17.238281 Z M 15.234375 -19.875 L 15.164062 -20.613281 C 15.414062 -20.339844 15.433594 -20.117188 15.234375 -19.875 Z M 15.234375 -19.875 "/></g></g></g><g fill="#fefefc" fill-opacity="1"><g transform="translate(189.065351, 160.334523)"><g><path d="M 17.605469 -20.027344 C 17.363281 -20.976562 16.359375 -20.578125 15.878906 -20.160156 C 15.253906 -19.652344 12.03125 -14.425781 12.363281 -14.082031 C 12.582031 -14.105469 12.730469 -14.117188 12.863281 -14.28125 C 11.953125 -12.925781 10.164062 -11.339844 8.867188 -10.09375 C 8.121094 -9.351562 6.304688 -7.316406 5.066406 -7.792969 C 2.433594 -8.804688 6.679688 -18.160156 6.449219 -18.210938 C 6.21875 -18.265625 4.773438 -13.949219 4.496094 -12.953125 C 5.132812 -15.625 6.066406 -18.324219 7.25 -20.746094 C 7.195312 -20.519531 7.011719 -20.128906 7.15625 -20.144531 C 7.3125 -20.082031 8.273438 -21.742188 8.035156 -21.867188 C 7.960938 -21.859375 7.8125 -21.847656 7.746094 -21.765625 C 7.949219 -22.007812 8.308594 -22.117188 8.265625 -22.558594 C 8.195312 -23.300781 6.425781 -23.875 5.816406 -24.039062 C 4.355469 -24.496094 2.9375 -24.507812 1.898438 -23.664062 C 0.507812 -22.632812 0.382812 -20.832031 -0.0585938 -19.226562 C -0.164062 -18.769531 -1.0625 -13.390625 -0.761719 -13.34375 C -0.621094 -13.433594 -0.628906 -13.507812 -0.566406 -13.660156 L -0.660156 -12.308594 C -0.734375 -12.304688 -0.621094 -12.6875 -0.769531 -12.671875 C -1.363281 -12.617188 -0.957031 -9.972656 -0.847656 -9.609375 C -0.425781 -8.308594 0.699219 -7.445312 1.621094 -6.417969 C 2.125 -5.792969 2.632812 -5.171875 3.339844 -4.792969 C 4.292969 -4.214844 3.636719 -4.820312 4.253906 -4.582031 L 4.109375 -4.570312 C 4.078125 -4.117188 6.953125 -3.648438 7.539062 -3.78125 C 10.066406 -4.621094 11.605469 -7.972656 12.894531 -10.109375 C 14.125 -12.015625 15.136719 -13.902344 16.214844 -15.871094 C 16.863281 -16.902344 18.035156 -18.652344 17.605469 -20.027344 Z M 3.785156 -28.09375 C 3.953125 -27.886719 3.761719 -27.570312 4.304688 -27.324219 C 4.84375 -27.152344 5.113281 -27.476562 5.539062 -27.664062 C 6.390625 -28.121094 6.964844 -29.144531 7.570312 -29.796875 C 7.777344 -29.96875 7.34375 -29.851562 7.34375 -29.851562 C 8.21875 -30.828125 7.503906 -29.71875 8.339844 -30.320312 C 9.171875 -30.996094 9.226562 -31.96875 9.886719 -32.851562 C 9.035156 -32.398438 8.421875 -31.816406 7.902344 -31.023438 C 7.253906 -29.992188 6.78125 -29.5 6.019531 -28.902344 C 6.839844 -29.652344 7.21875 -30.359375 7.84375 -31.613281 C 8.042969 -31.855469 8.253906 -32.027344 8.535156 -32.203125 C 8.289062 -32.402344 8.269531 -32.625 8.542969 -32.875 C 8.730469 -33.265625 9.160156 -33.453125 9.34375 -33.84375 C 9.664062 -34.398438 9.527344 -35.054688 9.917969 -35.613281 C 10.261719 -35.945312 10.757812 -36.214844 11.023438 -36.539062 C 11.632812 -37.195312 12.261719 -38.375 11.875 -39.304688 C 11.496094 -40.164062 10.648438 -41.199219 9.789062 -41.640625 C 8.777344 -42.0625 7.425781 -42.160156 6.4375 -41.617188 C 6.222656 -41.519531 5.355469 -41.214844 5.679688 -40.945312 C 5.769531 -40.804688 5.84375 -40.8125 5.988281 -40.828125 C 5.375 -40.246094 4.351562 -39.253906 5.960938 -38.8125 C 5.828125 -38.648438 6.039062 -38 6.046875 -37.925781 C 6.019531 -37.402344 5.25 -34.570312 4.710938 -33.175781 L 5.472656 -34.589844 C 5.0625 -33.433594 4.570312 -32.34375 3.988281 -31.390625 C 4.339844 -32.394531 3.5625 -31.203125 3.582031 -30.980469 C 2.734375 -31.273438 3.175781 -29.003906 3.269531 -28.789062 C 3.277344 -28.714844 3.785156 -28.09375 3.785156 -28.09375 Z M 4.070312 -10.378906 L 4.078125 -10.304688 L 3.972656 -9.847656 L 4.0625 -10.453125 C 4.128906 -10.535156 4.128906 -10.535156 4.070312 -10.378906 Z M 4.398438 -32.550781 C 4.398438 -32.550781 4.535156 -32.710938 4.652344 -33.019531 Z M 3.796875 -31.074219 C 3.804688 -31 3.804688 -31 3.738281 -30.921875 C 3.738281 -30.921875 3.730469 -30.996094 3.65625 -30.988281 C 3.730469 -30.996094 3.730469 -30.996094 3.796875 -31.074219 Z M 3.796875 -31.074219 "/></g></g></g><g fill="#fefefc" fill-opacity="1"><g transform="translate(203.024036, 158.99296)"><g><path d="M 27.734375 -21.671875 C 26.804688 -20.464844 26.316406 -18.554688 25.632812 -17.148438 C 24.582031 -14.886719 23.527344 -12.695312 22.394531 -10.5 C 20.269531 -6.269531 18.148438 -1.96875 15.46875 1.941406 C 14.359375 3.613281 12.0625 7.636719 9.523438 7.582031 C 7.648438 7.464844 7.34375 4.289062 7.210938 2.886719 C 7.097656 1.703125 7.054688 0.515625 7.097656 -0.609375 C 7.109375 -1.28125 7.484375 -3.550781 7.058594 -4.105469 L 6.679688 -1.835938 C 6.671875 -2.726562 6.726562 -3.703125 6.863281 -4.609375 C 6.773438 -4.75 7.238281 -6.882812 7.324219 -7.5625 C 7.550781 -9.074219 7.777344 -10.585938 8.078125 -12.105469 C 8.308594 -13.621094 8.542969 -15.058594 8.847656 -16.503906 C 9.089844 -17.867188 9.542969 -18.582031 10.257812 -19.695312 C 13.183594 -24.152344 15.777344 -28.945312 18.152344 -33.722656 C 19.023438 -35.519531 19.546875 -37.0625 20.667969 -38.585938 C 22.328125 -40.683594 23.308594 -43.683594 24.261719 -46.160156 C 25.886719 -50.195312 28.035156 -55.765625 27.15625 -60.230469 L 27.121094 -60.597656 L 27.042969 -60.664062 C 26.320312 -63.503906 23.335938 -66.644531 20.1875 -65.300781 C 18.535156 -64.617188 17.453125 -62.726562 16.539062 -61.371094 L 15.058594 -58.917969 C 14.734375 -58.4375 14.324219 -57.28125 14.011719 -56.65625 L 14.078125 -56.734375 L 12.105469 -52.445312 L 12.574219 -53.757812 C 12.199219 -53.796875 10.878906 -50.464844 10.691406 -50.074219 C 10.015625 -48.59375 9.410156 -47.121094 8.878906 -45.652344 C 7.6875 -42.554688 6.5 -39.386719 5.847656 -36.117188 C 5.117188 -32.84375 4.234375 -29.625 3.429688 -26.34375 C 3.003906 -24.589844 2.582031 -22.757812 2.230469 -21.011719 C 1.921875 -19.566406 1.105469 -17.175781 1.472656 -15.71875 L 1.691406 -15.742188 C 1.519531 -15.203125 1.421875 -14.671875 1.324219 -14.140625 C 1.355469 -14.589844 1.304688 -15.109375 1.367188 -15.261719 C 1.046875 -14.710938 1.289062 -12.945312 1.230469 -12.789062 C 0.652344 -8.710938 -0.0703125 -4.613281 0.03125 -0.449219 C 0.1875 3.484375 0.683594 8.65625 4.0625 11.238281 C 7.839844 14.082031 11.621094 11.554688 14.238281 8.546875 C 17.316406 4.894531 19.820312 0.703125 22.109375 -3.390625 C 24.207031 -7.171875 25.765625 -11.121094 27.640625 -14.882812 C 28.386719 -16.445312 29.203125 -18.011719 29.488281 -19.679688 C 29.671875 -20.890625 29.261719 -23.609375 27.734375 -21.671875 Z M 15.960938 -47.226562 C 17.097656 -50.914062 18.226562 -54.675781 19.972656 -58.199219 C 20.414062 -59.058594 23.3125 -63.8125 23.539062 -59.882812 L 23.546875 -59.808594 C 23.796875 -55.65625 21.554688 -51.042969 20.125 -47.328125 L 17.574219 -41.269531 C 16.710938 -39.398438 15.152344 -37.011719 14.746094 -35.035156 C 15.074219 -36.257812 16.242188 -38.085938 16.800781 -39.257812 C 17.730469 -41.210938 18.511719 -43.148438 19.371094 -45.09375 C 20.757812 -48.507812 22.277344 -52.082031 23.191406 -55.75 C 20.820312 -45.53125 15.5 -35.703125 10.882812 -26.390625 C 12.398438 -33.09375 13.859375 -40.390625 15.960938 -47.226562 Z M 13.097656 -52.171875 C 13.703125 -53.644531 14.917969 -54.953125 15.53125 -56.355469 C 14.277344 -53.101562 12.625 -50.113281 11.285156 -47 C 11.277344 -47.074219 11.265625 -47.222656 11.332031 -47.304688 C 11.839844 -48.992188 12.4375 -50.539062 13.097656 -52.171875 Z M 2.808594 -12.644531 C 2.75 -12.488281 2.757812 -12.414062 2.757812 -12.414062 C 2.070312 -10.261719 2.265625 -7.449219 2.035156 -5.191406 C 2.011719 -4.664062 1.90625 -4.207031 1.957031 -3.691406 L 1.933594 -3.914062 L 1.941406 -1.527344 C 1.832031 -4.203125 1.863281 -6.960938 2.132812 -9.597656 L 2.140625 -9.523438 C 2.199219 -11.242188 2.417969 -12.828125 2.714844 -12.859375 C 2.855469 -12.945312 2.875 -12.726562 2.808594 -12.644531 Z M 2.808594 -12.644531 "/></g></g></g><g fill="#fefefc" fill-opacity="1"><g transform="translate(229.168863, 156.480193)"><g><path d="M 41.363281 -21.789062 C 40.914062 -24.132812 38.84375 -21.621094 38.167969 -20.886719 C 37.011719 -19.734375 35.769531 -18.71875 34.613281 -17.5625 C 31.257812 -14.484375 28.136719 -11.277344 25.015625 -8.070312 C 26.035156 -12.191406 27.71875 -16.378906 29.589844 -20.210938 C 29.960938 -20.992188 30.265625 -21.691406 30.03125 -22.566406 C 29.472656 -24.523438 26.734375 -25.082031 24.992188 -24.613281 C 23.46875 -24.171875 23.390625 -23.417969 23.195312 -22.355469 C 22.78125 -20.453125 20.796875 -18.621094 19.675781 -17.097656 C 19.214844 -16.457031 16.148438 -11.914062 16.074219 -11.90625 C 16.296875 -11.925781 16.429688 -12.089844 16.570312 -12.175781 C 15.109375 -10.324219 12.769531 -8.308594 10.921875 -6.566406 C 10.175781 -5.824219 8.039062 -3.230469 6.738281 -3.554688 C 3.089844 -4.320312 9.035156 -19.207031 8.808594 -19.257812 C 8.578125 -19.3125 6.777344 -13.25 6.386719 -11.871094 C 7.222656 -15.601562 8.433594 -19.296875 9.730469 -22.851562 C 9.683594 -22.546875 9.519531 -21.933594 9.667969 -21.949219 C 9.894531 -21.898438 10.769531 -24.441406 10.542969 -24.492188 C 10.46875 -24.484375 10.402344 -24.40625 10.328125 -24.398438 C 10.519531 -24.714844 10.875 -24.898438 10.980469 -25.355469 C 11.109375 -26.335938 9.902344 -27.265625 9.0625 -27.480469 C 7.21875 -28.050781 5.25 -26.816406 4.601562 -25.039062 C 4.40625 -24.722656 4.234375 -24.183594 4.101562 -24.023438 C 3.921875 -23.558594 3.566406 -23.375 3.316406 -22.902344 C 2.636719 -21.421875 2.351562 -19.753906 1.902344 -18.222656 C 1.742188 -17.535156 -0.132812 -9.902344 0.246094 -9.863281 L 0.378906 -10.023438 C 0.28125 -9.492188 0.261719 -8.894531 0.238281 -8.371094 C 0.0859375 -8.429688 0.261719 -8.894531 0.117188 -8.882812 C -0.628906 -8.882812 -0.472656 -4.128906 -0.347656 -3.617188 C -0.0585938 -2.15625 1.078125 -0.402344 2.554688 0.203125 C 3.253906 0.507812 4.15625 0.570312 4.953125 0.34375 C 5.25 0.316406 6.59375 -0.410156 6.078125 -0.359375 L 6.507812 -0.550781 L 6.375 -0.390625 C 6.453125 -0.320312 9 -1.757812 9.429688 -1.949219 C 11.484375 -3.042969 13.167969 -4.917969 14.5625 -6.691406 L 18.96875 -12.035156 C 19.96875 -13.25 20.765625 -15.039062 21.863281 -16.039062 C 21.398438 -13.910156 20.933594 -11.777344 20.539062 -9.652344 C 19.960938 -7.136719 19.808594 -4.066406 18.839844 -1.734375 C 18.050781 0.128906 15.769531 1.988281 14.5 3.527344 C 12.683594 5.5625 10.867188 7.601562 9.207031 9.699219 C 6.882812 12.679688 4.890625 16.003906 2.894531 19.25 C 0.835938 22.65625 -1.980469 27.472656 1.34375 31.027344 C 3.597656 33.570312 7.457031 34.914062 10.695312 33.707031 C 13.652344 32.679688 14.589844 30.054688 15.839844 27.546875 C 19.816406 19.265625 21.527344 9.933594 23.429688 1.027344 C 23.753906 -0.269531 23.835938 -2.515625 24.472656 -3.621094 C 25.113281 -4.722656 26.503906 -5.753906 27.3125 -6.648438 C 29.335938 -8.855469 31.441406 -10.996094 33.554688 -13.0625 L 39.492188 -18.777344 C 40.378906 -19.609375 41.644531 -20.402344 41.363281 -21.789062 Z M 13.289062 19.59375 L 13.296875 19.667969 L 13.054688 20.289062 L 13.0625 20.359375 C 12.988281 20.367188 12.996094 20.441406 12.996094 20.441406 C 13.003906 20.515625 12.945312 20.671875 12.945312 20.671875 C 12.367188 22.441406 11.644531 24.222656 10.839844 25.941406 C 10.15625 27.347656 9.253906 29.597656 7.753906 30.261719 C 4.898438 31.582031 4.207031 26.726562 4.496094 25.0625 C 5.21875 20.964844 7.839844 17.210938 10.046875 13.792969 C 12.3125 10.222656 14.753906 6.929688 17.578125 3.75 C 16.296875 9.019531 15.019531 14.359375 13.289062 19.59375 Z M 17.472656 18.148438 C 17.683594 17.234375 18.105469 16.222656 18.539062 15.289062 C 18.222656 16.660156 17.980469 18.023438 17.296875 19.433594 L 16.746094 20.679688 C 16.964844 19.835938 17.175781 18.921875 17.472656 18.148438 Z M 19.210938 9.855469 L 18.191406 13.234375 C 18.277344 12.554688 18.351562 11.800781 18.605469 11.332031 C 18.835938 10.636719 19.316406 9.398438 19.089844 8.601562 C 19.199219 8.964844 19.320312 9.472656 19.210938 9.855469 Z M 17.449219 16.363281 L 17.703125 15.890625 C 17.644531 16.046875 17.582031 16.199219 17.449219 16.363281 Z M 17.449219 16.363281 "/></g></g></g><g fill="#fefefc" fill-opacity="1"><g transform="translate(158.02457, 297.680137)"><g><path d="M 4.207031 -7.613281 L 4.207031 -11.269531 C 6.027344 -11.269531 7.480469 -10.953125 7.480469 -9.433594 C 7.480469 -7.8125 5.742188 -7.648438 4.207031 -7.613281 Z M 1.070312 -13.773438 L 1.070312 0 L 4.207031 0 L 4.207031 -5.109375 C 6.078125 -5.109375 10.785156 -5.292969 10.785156 -9.535156 C 10.785156 -11.636719 9.417969 -13.691406 6.09375 -13.773438 Z M 1.070312 -13.773438 "/></g></g></g><g fill="#fefefc" fill-opacity="1"><g transform="translate(171.397765, 297.680137)"><g><path d="M 1.070312 -13.773438 L 1.070312 0 L 4.207031 0 L 4.207031 -5.109375 C 4.492188 -5.109375 4.824219 -5.109375 5.210938 -5.125 L 8.582031 0 L 12.039062 0 L 8.246094 -5.761719 C 9.632812 -6.328125 10.785156 -7.429688 10.785156 -9.535156 C 10.785156 -11.636719 9.417969 -13.691406 6.09375 -13.773438 Z M 4.207031 -7.613281 L 4.207031 -11.269531 C 6.027344 -11.269531 7.480469 -10.953125 7.480469 -9.433594 C 7.480469 -7.8125 5.742188 -7.648438 4.207031 -7.613281 Z M 4.207031 -7.613281 "/></g></g></g><g fill="#fefefc" fill-opacity="1"><g transform="translate(184.770961, 297.680137)"><g><path d="M 4.390625 -13.773438 L 1.253906 -13.773438 L 1.253906 0 L 4.390625 0 Z M 4.390625 -13.773438 "/></g></g></g><g fill="#fefefc" fill-opacity="1"><g transform="translate(191.916685, 297.680137)"><g><path d="M 12.371094 -0.417969 L 11.703125 -3.507812 C 11.703125 -3.507812 10.484375 -2.839844 8.882812 -2.839844 C 5.726562 -2.839844 4.339844 -5.042969 4.339844 -6.894531 C 4.339844 -8.730469 5.726562 -10.9375 8.882812 -10.9375 C 10.484375 -10.9375 11.703125 -10.269531 11.703125 -10.269531 L 12.371094 -13.355469 C 12.371094 -13.355469 11.386719 -14.023438 8.398438 -14.023438 C 4.492188 -14.023438 0.933594 -10.820312 0.933594 -6.863281 C 0.933594 -2.921875 4.507812 0.25 8.398438 0.25 C 11.386719 0.25 12.371094 -0.417969 12.371094 -0.417969 Z M 12.371094 -0.417969 "/></g></g></g><g fill="#fefefc" fill-opacity="1"><g transform="translate(206.742402, 297.680137)"><g><path d="M 9.050781 -13.773438 L 1.167969 -13.773438 L 1.167969 0 L 9.050781 0 L 9.050781 -2.753906 L 4.308594 -2.753906 L 4.308594 -5.527344 L 8.847656 -5.527344 L 8.847656 -8.28125 L 4.308594 -8.28125 L 4.308594 -11.019531 L 9.050781 -11.019531 Z M 9.050781 -13.773438 "/></g></g></g><g mask="url(#069ef8d055)"><g transform="matrix(1, 0, 0, 1, 134, 282)"><g clip-path="url(#845462ab45)"><g clip-path="url(#9cd478e86b)"><path fill="#fefefc" d="M 17.113281 9.882812 C 16.910156 9.882812 16.746094 9.71875 16.746094 9.519531 C 16.746094 5.304688 13.304688 1.878906 9.078125 1.878906 C 6.433594 1.878906 4.011719 3.210938 2.59375 5.4375 C 2.488281 5.605469 2.261719 5.65625 2.089844 5.550781 C 1.917969 5.441406 1.871094 5.214844 1.976562 5.046875 C 3.527344 2.609375 6.183594 1.152344 9.078125 1.152344 C 13.710938 1.152344 17.476562 4.90625 17.476562 9.519531 C 17.476562 9.71875 17.3125 9.882812 17.113281 9.882812 Z M 17.113281 9.882812 " fill-opacity="1" fill-rule="nonzero"/></g><path fill="#fefefc" d="M 1.863281 13.410156 C 1.730469 13.410156 1.601562 13.335938 1.535156 13.207031 C 1.347656 12.824219 1.1875 12.429688 1.0625 12.027344 C 1.003906 11.835938 1.109375 11.632812 1.300781 11.570312 C 1.496094 11.511719 1.699219 11.617188 1.761719 11.808594 C 1.875 12.175781 2.019531 12.535156 2.191406 12.886719 C 2.28125 13.066406 2.207031 13.285156 2.027344 13.371094 C 1.972656 13.398438 1.917969 13.410156 1.863281 13.410156 Z M 1.863281 13.410156 " fill-opacity="1" fill-rule="nonzero"/><path fill="#fefefc" d="M 9.0625 17.882812 C 8.601562 17.882812 8.136719 17.847656 7.679688 17.769531 C 7.480469 17.734375 7.347656 17.546875 7.378906 17.351562 C 7.414062 17.152344 7.605469 17.015625 7.800781 17.050781 C 8.222656 17.121094 8.648438 17.152344 9.078125 17.15625 C 9.457031 17.15625 9.839844 17.128906 10.210938 17.074219 C 10.410156 17.050781 10.597656 17.179688 10.628906 17.378906 C 10.65625 17.578125 10.519531 17.765625 10.320312 17.792969 C 9.90625 17.855469 9.496094 17.898438 9.0625 17.882812 Z M 12.675781 17.039062 C 12.542969 17.039062 12.414062 16.964844 12.347656 16.839844 C 12.257812 16.660156 12.332031 16.441406 12.511719 16.347656 C 13.234375 15.988281 13.894531 15.515625 14.46875 14.949219 C 14.613281 14.808594 14.84375 14.808594 14.988281 14.953125 C 15.128906 15.09375 15.128906 15.324219 14.984375 15.46875 C 14.355469 16.089844 13.632812 16.605469 12.839844 17 C 12.785156 17.027344 12.730469 17.039062 12.675781 17.039062 Z M 5.347656 16.972656 C 5.289062 16.972656 5.230469 16.957031 5.175781 16.929688 C 4.394531 16.519531 3.679688 15.988281 3.0625 15.355469 C 2.917969 15.210938 2.921875 14.980469 3.066406 14.839844 C 3.210938 14.699219 3.445312 14.703125 3.585938 14.847656 C 4.152344 15.425781 4.800781 15.910156 5.515625 16.285156 C 5.695312 16.378906 5.765625 16.597656 5.671875 16.777344 C 5.605469 16.902344 5.476562 16.972656 5.347656 16.972656 Z M 5.347656 16.972656 " fill-opacity="1" fill-rule="nonzero"/><g clip-path="url(#370afb5da9)"><path fill="#fefefc" d="M 16.234375 13.527344 C 16.175781 13.527344 16.117188 13.515625 16.066406 13.488281 C 15.886719 13.394531 15.816406 13.175781 15.90625 12.996094 C 16.085938 12.652344 16.234375 12.292969 16.355469 11.929688 C 16.421875 11.738281 16.628906 11.632812 16.820312 11.699219 C 17.007812 11.761719 17.113281 11.96875 17.050781 12.160156 C 16.917969 12.558594 16.753906 12.953125 16.558594 13.328125 C 16.492188 13.457031 16.363281 13.527344 16.234375 13.527344 Z M 16.234375 13.527344 " fill-opacity="1" fill-rule="nonzero"/></g><path fill="#fefefc" d="M 1.753906 6.472656 C 1.683594 6.472656 1.613281 6.453125 1.554688 6.414062 C 1.453125 6.347656 1.386719 6.234375 1.386719 6.109375 L 1.378906 4.050781 C 1.378906 3.847656 1.542969 3.683594 1.746094 3.683594 C 1.949219 3.683594 2.113281 3.847656 2.113281 4.046875 L 2.117188 5.546875 L 3.492188 4.9375 C 3.675781 4.859375 3.890625 4.9375 3.972656 5.125 C 4.054688 5.308594 3.972656 5.523438 3.789062 5.605469 L 1.902344 6.441406 C 1.855469 6.460938 1.804688 6.472656 1.753906 6.472656 Z M 1.753906 6.472656 " fill-opacity="1" fill-rule="nonzero"/><path fill="#fefefc" d="M 10.078125 13.355469 L 8.804688 13.355469 C 7.6875 13.355469 6.777344 12.445312 6.777344 11.332031 C 6.777344 11.128906 6.941406 10.96875 7.140625 10.96875 C 7.34375 10.96875 7.507812 11.128906 7.507812 11.332031 C 7.507812 12.042969 8.089844 12.625 8.804688 12.625 L 10.078125 12.625 C 10.796875 12.625 11.378906 12.042969 11.378906 11.332031 C 11.378906 10.949219 11.21875 10.671875 10.875 10.457031 C 10.488281 10.21875 9.960938 10.105469 9.40625 9.984375 C 8.644531 9.820312 7.851562 9.648438 7.273438 9.117188 C 6.941406 8.71875 6.777344 8.265625 6.777344 7.796875 C 6.777344 6.683594 7.6875 5.777344 8.804688 5.777344 L 10.078125 5.777344 C 11.199219 5.777344 12.109375 6.683594 12.109375 7.796875 C 12.109375 8 11.945312 8.164062 11.742188 8.164062 C 11.542969 8.164062 11.378906 8 11.378906 7.796875 C 11.378906 7.085938 10.796875 6.503906 10.078125 6.503906 L 8.804688 6.503906 C 8.089844 6.503906 7.507812 7.085938 7.507812 7.796875 C 7.507812 8.097656 7.613281 8.386719 7.800781 8.617188 C 8.203125 8.976562 8.863281 9.121094 9.5625 9.273438 C 10.152344 9.398438 10.765625 9.53125 11.261719 9.839844 C 11.816406 10.183594 12.109375 10.699219 12.109375 11.332031 C 12.109375 12.445312 11.199219 13.355469 10.078125 13.355469 Z M 10.078125 13.355469 " fill-opacity="1" fill-rule="nonzero"/><path fill="#fefefc" d="M 9.441406 6.289062 C 9.242188 6.289062 9.078125 6.125 9.078125 5.925781 L 9.078125 5.09375 C 9.078125 4.890625 9.242188 4.730469 9.441406 4.730469 C 9.644531 4.730469 9.808594 4.890625 9.808594 5.09375 L 9.808594 5.925781 C 9.808594 6.125 9.644531 6.289062 9.441406 6.289062 Z M 9.441406 6.289062 " fill-opacity="1" fill-rule="nonzero"/><path fill="#fefefc" d="M 9.441406 14.316406 C 9.242188 14.316406 9.078125 14.152344 9.078125 13.949219 L 9.078125 13.117188 C 9.078125 12.917969 9.242188 12.753906 9.441406 12.753906 C 9.644531 12.753906 9.808594 12.917969 9.808594 13.117188 L 9.808594 13.949219 C 9.808594 14.152344 9.644531 14.316406 9.441406 14.316406 Z M 9.441406 14.316406 " fill-opacity="1" fill-rule="nonzero"/></g></g></g></svg>